<svg width="9" height="15" viewBox="0 0 9 15" fill="none" xmlns="http://www.w3.org/2000/svg">
<path d="M8.32464 0.0030477L6.24981 0C3.9188 0 2.4124 1.41489 2.4124 3.60482V5.26688H0.326248C0.145979 5.26688 0 5.40068 0 5.56571V7.97385C0 8.13888 0.146146 8.27252 0.326248 8.27252H2.4124V14.349C2.4124 14.5141 2.55838 14.6477 2.73865 14.6477H5.46049C5.64076 14.6477 5.78674 14.5139 5.78674 14.349V8.27252H8.22594C8.40621 8.27252 8.55218 8.13888 8.55218 7.97385L8.55318 5.56571C8.55318 5.48647 8.51873 5.41058 8.45764 5.3545C8.39655 5.29843 8.31332 5.26688 8.22677 5.26688H5.78674V3.85793C5.78674 3.18073 5.96301 2.83695 6.9266 2.83695L8.32431 2.83649C8.50441 2.83649 8.65039 2.7027 8.65039 2.53782V0.301722C8.65039 0.136994 8.50458 0.00335247 8.32464 0.0030477Z" fill="#EE1F41"/>
</svg>
