<svg width="60" height="46" viewBox="0 0 60 46" fill="none" xmlns="http://www.w3.org/2000/svg">
<path d="M1.03685 22.3732C1.03685 21.5713 1.07293 20.7695 1.03685 19.9709C1.00837 19.5111 1.09261 19.0512 1.28081 18.6392C1.46901 18.2272 1.7543 17.878 2.10703 17.628C2.9277 16.9681 3.89569 16.7074 4.89973 16.5391C7.30463 16.1365 9.70953 15.7075 12.1144 15.3082C12.8692 15.1863 13.64 15.3078 14.3329 15.658C14.9342 15.9583 15.4242 15.8395 15.5925 16.549C15.9683 18.1626 16.3561 19.7729 16.7769 21.3766C16.8804 21.8963 16.872 22.4354 16.7525 22.9509C16.633 23.4664 16.4056 23.9443 16.0885 24.3465C15.6085 24.9004 14.9907 25.2872 14.3119 25.4585C11.0412 26.2043 7.75856 26.894 4.45182 27.4384C3.85971 27.5183 3.25878 27.4367 2.70226 27.2008C1.65312 26.795 1.34649 26.0426 1.16912 24.891C1.05489 24.1584 0.907593 23.0299 0.907593 23.0299C0.907593 22.6207 1.04287 22.7725 1.04287 22.3699L1.03685 22.3732Z" fill="url(#paint0_linear)"/>
<path d="M22.2962 23.1652C21.3041 23.0959 20.3873 22.9111 19.5906 22.2412C19.1187 21.8446 18.7777 21.2896 18.6196 20.6606C18.1357 18.8721 17.6397 17.0902 17.1557 15.305C16.8551 14.2226 17.7569 12.5925 18.5986 11.9226C19.5185 11.1802 19.9724 12.0348 21.0035 11.8236C22.9785 11.4244 24.9626 11.0845 26.9406 10.6951C27.7633 10.5201 28.6155 10.6426 29.3694 11.0442C30.1233 11.4458 30.7383 12.1048 31.1221 12.9225C31.8316 14.3909 32.55 15.8527 33.2625 17.3179C34.1072 19.0536 33.6443 20.4461 31.9669 21.0599C30.7434 21.5087 29.4598 21.6703 28.2002 21.9475C26.3514 22.3567 24.4996 22.7296 22.6479 23.1157C22.5096 23.1421 22.3803 23.152 22.2962 23.1652Z" fill="url(#paint1_linear)"/>
<path d="M32.5861 9.27327C30.9628 9.24027 29.9166 8.17772 29.1711 6.49151C28.7829 5.70495 28.3585 4.9406 27.8995 4.20143C27.154 2.8815 27.6861 1.23158 29.0809 0.970893C31.6091 0.495717 33.554 1.23158 36.1363 1.22828C36.682 1.22031 37.2218 1.35218 37.7128 1.61339C38.2039 1.87461 38.6327 2.25797 38.9651 2.733C39.7076 3.74605 40.4201 2.99699 41.2317 4.45551C41.875 5.61046 41.8089 7.35937 40.7748 7.82464C40.0202 8.15463 39.2026 8.19422 38.4089 8.34272C36.7345 8.6727 35.0511 8.93999 33.3707 9.22377C33.1101 9.25515 32.8482 9.27168 32.5861 9.27327Z" fill="url(#paint2_linear)"/>
<path d="M18.4663 11.6753C17.8796 11.681 17.2981 11.5529 16.7588 11.2991C16.4482 11.168 16.1709 10.9568 15.9501 10.6835C15.7293 10.4102 15.5716 10.0826 15.4902 9.72837C15.1896 8.50743 14.8349 7.30299 14.5163 6.09854C14.1976 4.8941 14.5674 4.00975 15.3009 3.45867C15.9682 2.9373 16.5664 3.51477 17.336 3.38938L22.9364 2.46542C23.4298 2.3862 23.9311 2.3862 24.4244 2.46542C25.4345 2.62711 26.2582 3.07259 26.7332 4.22424C27.1901 5.32638 27.656 5.50457 28.1641 6.58032C28.6721 7.65607 28.8435 9.17399 27.656 9.80096C27.0253 10.1178 26.356 10.3324 25.669 10.4378C23.4445 10.847 21.2199 11.276 18.9954 11.6918C18.8189 11.7036 18.6419 11.6981 18.4663 11.6753Z" fill="url(#paint3_linear)"/>
<path d="M0.606936 10.8402C0.606936 10.2726 0.640004 9.70174 0.606936 9.13746C0.558838 8.4775 0.868473 8.06172 1.3254 7.70533C2.31141 6.93317 3.49583 6.83418 4.65619 6.65598L9.84175 5.88052C10.3214 5.81399 10.8063 5.80514 11.2877 5.85412C11.7508 5.87467 12.1959 6.05652 12.5586 6.37333C12.9212 6.69014 13.1826 7.12547 13.3048 7.61624C13.5663 8.62599 13.5423 8.71179 13.8279 9.71164C14.0263 10.4178 13.891 11.8532 13.401 12.3119C12.5923 13.0709 11.5763 13.2557 10.5542 13.424C8.26654 13.8034 6.15324 14.2258 3.86558 14.5987C3.22017 14.7044 2.56132 14.648 1.93865 14.4337C0.982699 14.1037 0.658048 13.6582 0.633999 12.6122C0.633999 12.0215 0.633999 11.4309 0.633999 10.8402H0.606936Z" fill="url(#paint4_linear)"/>
<path d="M40.7417 7.80103C42.5845 7.88682 43.8891 8.51709 44.8842 10.0581C45.8792 11.5991 47.0245 11.8829 48.0526 13.3348C49.0236 14.7109 48.6027 17.2452 47.1207 17.6411C44.3581 18.3836 41.5834 19.1558 38.7637 19.4857C37.0471 19.687 35.508 18.938 34.5551 16.9845C33.8035 15.4269 32.9979 13.9057 32.2163 12.3647C31.4347 10.8237 32.4357 8.96257 33.9358 8.62928C35.7064 8.2333 36.9419 8.54019 38.7156 8.19041L40.7417 7.80103Z" fill="url(#paint5_linear)"/>
<path d="M5.62409 45.0365C9.58016 44.0828 13.5423 43.1523 17.4893 42.1689C20.0295 41.5321 21.3973 39.1001 20.7479 36.5229C20.1287 34.0843 19.4974 31.6491 18.8962 29.2039C18.7771 28.7164 18.5533 28.2673 18.2437 27.8941C17.9341 27.521 17.5476 27.2346 17.1165 27.059C16.218 26.6389 15.2254 26.524 14.2667 26.729C11.2005 27.345 8.13522 27.9665 5.07097 28.5934C4.28459 28.7483 3.53742 29.0858 2.87949 29.5834C1.81832 30.3819 1.00066 31.3818 1.0217 32.8172C1.05777 35.7079 1.13292 38.6018 1.22611 41.4925C1.28624 43.3371 2.34439 44.5613 4.09998 44.9474C4.59712 45.0912 5.11584 45.1215 5.62409 45.0365Z" fill="url(#paint6_linear)"/>
<path d="M5.55202 43.9278C9.45998 42.9774 13.3469 42.0469 17.2338 41.0635C19.7349 40.4266 21.0847 37.9947 20.4414 35.4175C19.8401 32.9789 19.2089 30.5436 18.6166 28.0984C18.5018 27.6129 18.2828 27.1645 17.9779 26.7908C17.673 26.4171 17.2911 26.1289 16.8641 25.9502C15.9824 25.5305 15.0051 25.4154 14.0624 25.6203C11.0422 26.2384 8.02406 26.8599 5.00791 27.4847C4.23246 27.6423 3.49659 27.9798 2.84951 28.4746C1.80639 29.2765 1.00375 30.2763 1.02178 31.7118C1.05786 34.6024 1.13 37.4964 1.22319 40.387C1.28331 42.2316 2.32344 43.4559 4.05196 43.842C4.54126 43.9837 5.05195 44.0129 5.55202 43.9278Z" fill="#E31E26"/>
<path d="M57.4138 31.5666C54.4077 32.3651 51.4015 33.2429 48.3353 33.8434C46.0536 34.2889 43.9644 33.4574 42.6236 31.362C41.0364 28.8673 39.9482 26.7884 38.5173 24.1848C37.7868 22.8649 38.7969 20.2448 40.4262 19.7102C41.5414 19.3605 41.8811 19.862 43.0265 19.6145C44.4844 19.3011 45.9394 18.9546 47.4064 18.7005C49.667 18.2946 51.615 18.9579 53.118 20.8421C54.7624 22.8913 56.3707 24.9768 58.0361 27.0095C58.5892 27.6859 58.8748 27.5012 59.2385 28.2766C59.2415 28.2766 59.7766 30.6888 57.4138 31.5666Z" fill="url(#paint7_linear)"/>
<path d="M57.4949 30.2202C54.603 30.9726 51.7232 31.8008 48.7952 32.3651C46.6067 32.7875 44.6047 32.0087 43.327 30.0288C41.809 27.6793 40.4712 25.1979 39.1034 22.7461C38.403 21.4921 38.9832 20.1557 40.4352 19.7102C41.5053 19.3802 42.6176 19.2021 43.7148 18.9678C45.1127 18.6708 46.5075 18.354 47.9234 18.1065C50.0908 17.7204 51.9516 18.3474 53.4006 20.1227C54.9788 22.0531 56.5209 24.0165 58.1142 25.9304C58.6463 26.5673 58.9078 27.3296 59.2475 28.0588C59.2355 28.0489 59.9389 29.2996 57.4949 30.2202Z" fill="url(#paint8_linear)"/>
<path d="M55.3936 30.7779C53.2051 31.3587 51.0137 31.9395 48.7801 32.3651C46.5466 32.7908 44.6046 32.0087 43.327 30.0288C41.8089 27.6794 40.4712 25.1979 39.1034 22.7461C38.9238 22.461 38.8214 22.126 38.8081 21.7796C38.7948 21.4333 38.8711 21.09 39.0282 20.7893L55.3936 30.7779Z" fill="#313B41"/>
<path d="M32.7966 21.6836C34.7536 21.8057 36.2957 22.5482 37.2427 24.5149C38.37 26.8478 39.5875 29.1346 40.7478 31.4445C41.9082 33.7544 41.0484 35.9818 38.6586 36.6253C35.3518 37.5162 32.012 38.3841 28.6782 39.2024C26.646 39.7007 23.664 38.6778 22.8764 35.5297C22.2751 33.101 21.9144 31.5006 21.232 29.095C20.5616 26.7455 21.0035 24.2872 23.2281 23.6833C24.5177 23.3368 25.8344 23.1025 27.136 22.8187C28.6932 22.4822 30.2504 22.1522 31.8076 21.8288C32.1473 21.7463 32.49 21.7232 32.7966 21.6836Z" fill="url(#paint9_linear)"/>
<path d="M32.9258 21.3767C34.8016 21.4922 36.2806 22.1951 37.1884 24.0595C38.2646 26.2671 39.431 28.4285 40.5463 30.6196C41.6616 32.8106 40.8289 34.9093 38.5412 35.5264C35.3637 36.3712 32.1772 37.1763 28.9817 37.9683C27.0367 38.4435 24.1719 37.4733 23.4264 34.4903C22.8432 32.1804 22.1157 29.9332 21.4604 27.653C20.8171 25.4256 21.6317 23.8384 23.7631 23.2675C24.9986 22.9375 26.2582 22.7164 27.5087 22.4492C28.9997 22.1302 30.4918 21.8145 31.9848 21.5021C32.2915 21.4493 32.6251 21.413 32.9258 21.3767Z" fill="url(#paint10_linear)"/>
<path d="M22.5095 21.535C21.5626 21.4756 20.6878 21.304 19.9333 20.6969C19.4873 20.3402 19.1609 19.8323 19.0044 19.2515C18.5444 17.6214 18.0695 15.9979 17.6065 14.3678C17.3269 13.3778 17.5825 12.6948 18.3761 12.081C19.2539 11.421 20.294 11.388 21.289 11.1933C23.1739 10.8271 25.0707 10.5334 26.9556 10.1638C27.7289 10.0061 28.5277 10.1186 29.2396 10.4857C29.9515 10.8527 30.5405 11.4557 30.9237 12.2097C31.6031 13.5494 32.2885 14.8826 32.9709 16.2223C33.7765 17.8062 33.3316 19.0733 31.7323 19.6343C30.5629 20.0435 29.3274 20.1887 28.125 20.4428C26.3604 20.8157 24.5928 21.1555 22.8252 21.5053C22.7049 21.5152 22.5907 21.5251 22.5095 21.535Z" fill="#E31E26"/>
<path d="M17.814 12.6519C17.9735 12.431 18.1631 12.2384 18.3761 12.081C19.2539 11.421 20.294 11.388 21.2891 11.1933C23.1739 10.8271 25.0708 10.5334 26.9556 10.1638C27.7289 10.0061 28.5278 10.1186 29.2397 10.4857C29.9515 10.8527 30.5406 11.4557 30.9237 12.2097C31.6031 13.5494 32.2885 14.8826 32.9709 16.2223C33.2809 16.7561 33.4087 17.3933 33.3316 18.0207L17.814 12.6519Z" fill="#ED4D5B"/>
<path d="M41.0634 7.29956C42.8491 7.37876 44.1117 7.95953 45.0736 9.36196C46.0356 10.7644 47.0637 12.0018 48.0587 13.3218C48.9966 14.579 48.6599 15.9121 47.241 16.2916C44.5656 16.9516 41.8781 17.6742 39.1485 17.9778C37.4892 18.1593 35.9981 17.4763 35.0843 15.691C34.3568 14.2688 33.5812 12.8796 32.8207 11.4739C32.0601 10.0681 32.499 8.93958 33.9509 8.63269C35.6644 8.26971 37.39 7.97273 39.1125 7.65924L41.0634 7.29956Z" fill="url(#paint11_linear)"/>
<path d="M0.606881 9.21679C0.606881 8.64922 0.636942 8.07835 0.606881 7.51408C0.558783 6.85411 0.8594 6.43833 1.30731 6.08195C2.26927 5.30979 3.42663 5.21079 4.55994 5.0359C6.24638 4.77191 7.9328 4.52113 9.61923 4.25714C10.0868 4.19057 10.5597 4.18172 11.0291 4.23074C12.2015 4.34293 12.6945 4.78511 13.0011 5.99615C13.2536 6.9861 13.4791 8.01895 13.7557 9.0221C13.8477 9.32682 13.8489 9.6558 13.7592 9.96135C13.6695 10.2669 13.4935 10.5332 13.2567 10.7215C12.469 11.4772 11.477 11.662 10.479 11.8336C8.23944 12.2097 6.01189 12.6057 3.76632 12.9753C3.13587 13.081 2.49166 13.0245 1.88448 12.8103C0.952585 12.4803 0.633942 12.0349 0.612899 10.9888C0.612899 10.3981 0.612899 9.80746 0.612899 9.21679H0.606881Z" fill="url(#paint12_linear)"/>
<path d="M0.618927 8.22021C0.618927 8.5502 0.618927 8.88018 0.618927 9.21017C0.618927 9.80084 0.618927 10.3915 0.618927 10.9822C0.63997 12.0282 0.958615 12.477 1.89052 12.8037C2.4977 13.0179 3.1419 13.0744 3.77236 12.9687C6.00592 12.5991 8.23347 12.2031 10.464 11.8269C11.0792 11.7481 11.6843 11.5931 12.2677 11.365L0.618927 8.22021Z" fill="#2F3E45"/>
<path d="M18.5385 9.94599C17.9733 9.95133 17.4123 9.83937 16.8851 9.61601C16.5936 9.5174 16.3282 9.34285 16.1115 9.10727C15.8948 8.87168 15.7332 8.58205 15.6405 8.26308C15.3399 7.20713 15.0123 6.16768 14.6996 5.12163C14.4471 4.28018 14.5794 3.91719 15.3009 3.42552C15.9472 2.97674 16.6987 2.87775 17.4442 2.76555L22.8553 1.96699C23.3343 1.89935 23.8192 1.89935 24.2982 1.96699C25.2752 2.10558 26.0748 2.49166 26.5347 3.48492C26.9947 4.47817 27.5238 5.33282 28.0168 6.26008C28.5098 7.18733 28.3174 7.7714 27.4155 8.29278C26.809 8.60016 26.1576 8.78676 25.4916 8.84385C23.3483 9.21343 21.2019 9.56981 19.0405 9.94269C18.8734 9.95701 18.7057 9.95811 18.5385 9.94599Z" fill="url(#paint13_linear)"/>
<path d="M32.9018 7.38863C31.3987 7.35563 30.1782 6.83096 29.4808 5.28333C29.1187 4.56037 28.7224 3.85875 28.2934 3.18134C27.599 1.9736 27.7794 1.20144 29.081 0.970449C31.4408 0.534871 33.8006 0.000297314 36.2115 0.000297314C36.7185 -0.00682675 37.2203 0.114163 37.678 0.35391C38.1357 0.593658 38.537 0.945739 38.8509 1.38293C39.5393 2.31018 40.2787 3.19784 40.9972 4.10199C41.6616 4.94015 41.4992 5.62982 40.5373 6.0555C39.8338 6.36898 39.0703 6.38548 38.3308 6.53397C36.7676 6.82766 35.1984 7.08174 33.6322 7.34243C33.3917 7.38203 33.1452 7.37213 32.9018 7.38863Z" fill="#313B41"/>
<path d="M0.892553 22.7956C0.892553 23.967 1.37653 24.7029 2.42567 25.1055C2.9822 25.3413 3.58313 25.4229 4.17524 25.3431C7.48198 24.7986 10.7647 24.1089 14.0353 23.3632C14.7144 23.1925 15.3324 22.8057 15.812 22.2511C16.1116 21.9613 16.3279 21.582 16.4346 21.1596C16.5414 20.7372 16.5339 20.2898 16.4132 19.8719C15.9923 18.2682 15.6045 16.6579 15.2288 15.0443C15.1571 14.7106 15.0139 14.4006 14.811 14.14C14.6081 13.8794 14.3515 13.6758 14.0624 13.5462C13.3687 13.1948 12.5963 13.0743 11.8409 13.1997C9.43596 13.5957 7.03106 14.0279 4.62616 14.4305C3.62211 14.5988 2.65715 14.8463 1.83347 15.5195C1.48061 15.7691 1.19538 16.1183 1.00763 16.5305C0.819886 16.9427 0.736536 17.4027 0.7663 17.8623L0.892553 22.7956Z" fill="url(#paint14_linear)"/>
<defs>
<linearGradient id="paint0_linear" x1="21.5266" y1="17.1067" x2="-7.04481" y2="24.7519" gradientUnits="userSpaceOnUse">
<stop stop-color="#949DA7"/>
<stop offset="0.5" stop-color="#414F58"/>
<stop offset="1" stop-color="#394144"/>
</linearGradient>
<linearGradient id="paint1_linear" x1="17.1046" y1="16.8955" x2="33.6623" y2="16.8955" gradientUnits="userSpaceOnUse">
<stop stop-color="#1D0C12"/>
<stop offset="0.5" stop-color="#582A1D"/>
<stop offset="1" stop-color="#9C3722"/>
</linearGradient>
<linearGradient id="paint2_linear" x1="27.5628" y1="5.04288" x2="41.6466" y2="5.04288" gradientUnits="userSpaceOnUse">
<stop stop-color="#949DA7"/>
<stop offset="0.83" stop-color="#5F6C75"/>
</linearGradient>
<linearGradient id="paint3_linear" x1="14.6515" y1="8.9793" x2="35.3519" y2="2.99843" gradientUnits="userSpaceOnUse">
<stop stop-color="#949DA7"/>
<stop offset="0.5" stop-color="#5F6C75"/>
<stop offset="1" stop-color="#233F40"/>
</linearGradient>
<linearGradient id="paint4_linear" x1="8326.76" y1="201.53" x2="7957.65" y2="498.434" gradientUnits="userSpaceOnUse">
<stop stop-color="#949DA7"/>
<stop offset="0.5" stop-color="#414F58"/>
<stop offset="1" stop-color="#394144"/>
</linearGradient>
<linearGradient id="paint5_linear" x1="11797.8" y1="696.96" x2="12065.6" y2="110.082" gradientUnits="userSpaceOnUse">
<stop stop-color="#949DA7"/>
<stop offset="0.5" stop-color="#5F6C75"/>
<stop offset="1" stop-color="#233F40"/>
</linearGradient>
<linearGradient id="paint6_linear" x1="11712" y1="2031.98" x2="13027.7" y2="2031.98" gradientUnits="userSpaceOnUse">
<stop stop-color="#1D0C12"/>
<stop offset="0.5" stop-color="#582A1D"/>
<stop offset="1" stop-color="#9C3722"/>
</linearGradient>
<linearGradient id="paint7_linear" x1="15378" y1="1683.3" x2="15951" y2="380.919" gradientUnits="userSpaceOnUse">
<stop stop-color="#949DA7"/>
<stop offset="0.5" stop-color="#414F58"/>
<stop offset="1" stop-color="#394144"/>
</linearGradient>
<linearGradient id="paint8_linear" x1="15063.5" y1="1515.75" x2="15561.5" y2="341.937" gradientUnits="userSpaceOnUse">
<stop stop-color="#949DA7"/>
<stop offset="0.5" stop-color="#414F58"/>
<stop offset="1" stop-color="#394144"/>
</linearGradient>
<linearGradient id="paint9_linear" x1="14113.1" y1="1432.78" x2="13530.3" y2="3037.96" gradientUnits="userSpaceOnUse">
<stop stop-color="#949DA7"/>
<stop offset="0.5" stop-color="#414F58"/>
<stop offset="1" stop-color="#394144"/>
</linearGradient>
<linearGradient id="paint10_linear" x1="13333" y1="2003.75" x2="13877.4" y2="839.26" gradientUnits="userSpaceOnUse">
<stop stop-color="#949DA7"/>
<stop offset="0.5" stop-color="#5F6C75"/>
<stop offset="1" stop-color="#233F40"/>
</linearGradient>
<linearGradient id="paint11_linear" x1="37.2457" y1="18.0273" x2="46.0401" y2="5.65975" gradientUnits="userSpaceOnUse">
<stop stop-color="#484F54"/>
<stop offset="0.6" stop-color="#313B41"/>
</linearGradient>
<linearGradient id="paint12_linear" x1="7981.02" y1="293.743" x2="8192.18" y2="-88.1301" gradientUnits="userSpaceOnUse">
<stop stop-color="#949DA7"/>
<stop offset="0.5" stop-color="#414F58"/>
<stop offset="1" stop-color="#394144"/>
</linearGradient>
<linearGradient id="paint13_linear" x1="17.0624" y1="10.4839" x2="29.0238" y2="-0.114321" gradientUnits="userSpaceOnUse">
<stop stop-color="#5F6C75"/>
<stop offset="1" stop-color="#394144"/>
</linearGradient>
<linearGradient id="paint14_linear" x1="9357.03" y1="956.271" x2="10040.8" y2="105.875" gradientUnits="userSpaceOnUse">
<stop stop-color="#949DA7"/>
<stop offset="0.5" stop-color="#5F6C75"/>
<stop offset="1" stop-color="#233F40"/>
</linearGradient>
</defs>
</svg>
