<svg width="16" height="16" viewBox="0 0 16 16" fill="none" xmlns="http://www.w3.org/2000/svg">
<path d="M14.4 1.6001C14.8243 1.6001 15.2313 1.76867 15.5314 2.06873C15.8314 2.36879 16 2.77575 16 3.2001V12.8001C16 13.2244 15.8314 13.6314 15.5314 13.9315C15.2313 14.2315 14.8243 14.4001 14.4 14.4001H1.6C1.17565 14.4001 0.768687 14.2315 0.468629 13.9315C0.168571 13.6314 0 13.2244 0 12.8001V3.2001C0 2.3201 0.72 1.6001 1.6 1.6001H14.4ZM10.904 8.8801L16 12.8001V11.2001L11.904 8.0801L16 4.8001V3.2001L8 9.6001L0 3.2001V4.8001L4.096 8.0801L0 11.2001V12.8001L5.096 8.8801L8 11.2001L10.904 8.8801Z" fill="#EE1F41"/>
</svg>
