<svg width="1380" height="627" viewBox="0 0 1380 627" fill="none" xmlns="http://www.w3.org/2000/svg">
<rect width="1380" height="627" fill="#FAEBED"/>
<g opacity="0.07">
<path d="M521.654 279C542.413 279 559.241 262.102 559.241 241.258C559.241 220.414 542.413 203.516 521.654 203.516C500.895 203.516 484.067 220.414 484.067 241.258C484.067 262.102 500.895 279 521.654 279Z" fill="#EE1F41"/>
<path d="M484.067 241.258C484.067 241.258 480.308 199.742 529.171 162L536.689 169.548C536.689 169.548 506.619 199.742 517.895 241.258H484.067Z" fill="#EE1F41"/>
<path d="M604.413 279C625.172 279 642 262.102 642 241.258C642 220.414 625.172 203.516 604.413 203.516C583.654 203.516 566.826 220.414 566.826 241.258C566.826 262.102 583.654 279 604.413 279Z" fill="#EE1F41"/>
<path d="M566.826 241.258C566.826 241.258 563.067 199.742 611.93 162L619.448 169.548C619.448 169.548 589.378 199.742 600.654 241.258H566.826Z" fill="#EE1F41"/>
<g clip-path="url(#clip0)">
<path d="M857.346 279C836.587 279 819.759 295.898 819.759 316.742C819.759 337.586 836.587 354.484 857.346 354.484C878.105 354.484 894.933 337.586 894.933 316.742C894.933 295.898 878.105 279 857.346 279Z" fill="#EE1F41"/>
<path d="M894.933 316.742C894.933 316.742 898.692 358.258 849.829 396L842.311 388.452C842.311 388.452 872.381 358.258 861.105 316.742L894.933 316.742Z" fill="#EE1F41"/>
<path d="M774.587 279C753.828 279 737 295.898 737 316.742C737 337.586 753.828 354.484 774.587 354.484C795.346 354.484 812.174 337.586 812.174 316.742C812.174 295.898 795.346 279 774.587 279Z" fill="#EE1F41"/>
<path d="M812.174 316.742C812.174 316.742 815.933 358.258 767.07 396L759.552 388.452C759.552 388.452 789.622 358.258 778.346 316.742L812.174 316.742Z" fill="#EE1F41"/>
</g>
</g>
<defs>
<clipPath id="clip0">
<rect x="895" y="396" width="158" height="117" transform="rotate(-180 895 396)" fill="white"/>
</clipPath>
</defs>
</svg>
