<svg width="16" height="16" viewBox="0 0 16 16" fill="none" xmlns="http://www.w3.org/2000/svg">
<g clip-path="url(#clip0)">
<path d="M16 3.03916C15.4111 3.3001 14.7793 3.47707 14.1154 3.55607C14.7932 3.15014 15.3122 2.50627 15.5581 1.74141C14.9222 2.11733 14.2203 2.3903 13.4725 2.53827C12.8736 1.8994 12.0217 1.50146 11.0769 1.50146C9.26426 1.50146 7.79453 2.97119 7.79453 4.78284C7.79453 5.03978 7.82352 5.29074 7.87952 5.53071C5.15205 5.39372 2.73351 4.08698 1.11482 2.10133C0.831863 2.58525 0.670895 3.14912 0.670895 3.75103C0.670895 4.88982 1.25079 5.89463 2.13063 6.4825C1.59273 6.46451 1.08682 6.31654 0.643915 6.07058V6.11157C0.643915 7.70127 1.77571 9.02801 3.27641 9.32997C3.00146 9.40396 2.71152 9.44495 2.41158 9.44495C2.19963 9.44495 1.99466 9.42396 1.79369 9.38396C2.2116 10.6887 3.42339 11.6375 4.85913 11.6635C3.73633 12.5434 2.32059 13.0663 0.782895 13.0663C0.517954 13.0663 0.256987 13.0503 4.57764e-05 13.0213C1.45278 13.9541 3.17746 14.498 5.0311 14.498C11.069 14.498 14.3694 9.49695 14.3694 5.15978L14.3583 4.73487C15.0032 4.27492 15.5611 3.69704 16 3.03916Z" fill="#EE1F41"/>
</g>
<defs>
<clipPath id="clip0">
<rect width="16" height="16" fill="white"/>
</clipPath>
</defs>
</svg>
